<?xml version="1.0" standalone="no"?>
<!DOCTYPE svg PUBLIC "-//W3C//DTD SVG 20010904//EN"
 "http://www.w3.org/TR/2001/REC-SVG-20010904/DTD/svg10.dtd">
<svg version="1.0" xmlns="http://www.w3.org/2000/svg"
 width="1200.000000pt" height="1200.000000pt" viewBox="0 0 1200.000000 1200.000000"
 preserveAspectRatio="xMidYMid meet">
<metadata>
Created by potrace 1.11, written by Peter Selinger 2001-2013
</metadata>
<g transform="translate(0.000000,1200.000000) scale(0.100000,-0.100000)"
fill="#000000" stroke="none">
<path d="M2174 11410 c-66 -15 -126 -69 -153 -141 -6 -17 -9 -1879 -8 -5280
l2 -5254 26 -45 c16 -28 44 -56 74 -75 l48 -30 1536 -2 c1685 -2 1601 -5 1670
58 18 17 40 52 50 77 15 44 16 443 16 5292 l0 5245 -23 44 c-24 46 -48 71 -97
99 -28 16 -129 17 -1570 18 -847 0 -1554 -2 -1571 -6z"/>
<path d="M6717 6845 c-58 -20 -97 -56 -124 -115 -16 -32 -17 -273 -18 -2995 0
-1733 3 -2975 8 -2997 5 -20 25 -55 44 -78 69 -80 -75 -73 1643 -75 1643 -1
1593 -3 1650 48 14 12 36 40 50 62 l25 40 0 1555 c-1 1387 -4 1647 -20 1740
-2 14 -7 45 -10 70 -11 94 -30 187 -66 335 -115 463 -354 927 -674 1301 -94
111 -302 313 -421 408 -410 330 -852 536 -1404 655 -210 45 -608 72 -683 46z"/>
</g>
</svg>
